HIERARCHY
ROOT hip
{
  OFFSET -107.062 66.2571 -284.531
  CHANNELS 6 Xposition Yposition Zposition Zrotation Xrotation Yrotation
  JOINT abdomen
  {
    OFFSET 0 20.6881 -0.73152
    CHANNELS 3 Zrotation Xrotation Yrotation
    JOINT chest
    {
      OFFSET 0 11.7043 -0.48768
      CHANNELS 3 Zrotation Xrotation Yrotation
      JOINT neck
      {
        OFFSET 0 22.1894 -2.19456
        CHANNELS 3 Zrotation Xrotation Yrotation
        JOINT head
        {
          OFFSET -0.24384 7.07133 1.2192
          CHANNELS 3 Zrotation Xrotation Yrotation
          JOINT leftEye
          {
            OFFSET 4.14528 8.04674 8.04672
            CHANNELS 3 Zrotation Xrotation Yrotation
            End Site
            {
              OFFSET 1 0 0
            }
          }
          JOINT rightEye
          {
            OFFSET -3.6576 8.04674 8.04672
            CHANNELS 3 Zrotation Xrotation Yrotation
            End Site
            {
              OFFSET 1 0 0
            }
          }
        }
      }
      JOINT rCollar
      {
        OFFSET -2.68224 19.2634 -4.8768
        CHANNELS 3 Zrotation Xrotation Yrotation
        JOINT rShldr
        {
          OFFSET -8.77824 -1.95073 1.46304
          CHANNELS 3 Zrotation Xrotation Yrotation
          JOINT rForeArm
          {
            OFFSET -28.1742 -1.7115 0.48768
            CHANNELS 3 Zrotation Xrotation Yrotation
            JOINT rHand
            {
              OFFSET -22.5879 0.773209 7.07136
              CHANNELS 3 Zrotation Xrotation Yrotation
              JOINT rThumb1
              {
                OFFSET -1.2192 -0.487915 3.41376
                CHANNELS 3 Zrotation Xrotation Yrotation
                JOINT rThumb2
                {
                  OFFSET -3.37035 -0.52449 3.41376
                  CHANNELS 3 Zrotation Xrotation Yrotation
                  End Site
                  {
                    OFFSET -1.78271 -1.18214 1.43049
                  }
                }
              }
              JOINT rIndex1
              {
                OFFSET -7.75947 0.938293 5.60832
                CHANNELS 3 Zrotation Xrotation Yrotation
                JOINT rIndex2
                {
                  OFFSET -2.54057 -0.884171 1.56538
                  CHANNELS 3 Zrotation Xrotation Yrotation
                  End Site
                  {
                    OFFSET -1.62519 -0.234802 1.16502
                  }
                }
              }
              JOINT rMid1
              {
                OFFSET -8.24714 1.18213 3.41376
                CHANNELS 3 Zrotation Xrotation Yrotation
                JOINT rMid2
                {
                  OFFSET -3.10165 -0.590103 1.0647
                  CHANNELS 3 Zrotation Xrotation Yrotation
                  End Site
                  {
                    OFFSET -2.48547 -0.328903 0.83742
                  }
                }
              }
              JOINT rRing1
              {
                OFFSET -8.82822 0.546677 1.51678
                CHANNELS 3 Zrotation Xrotation Yrotation
                JOINT rRing2
                {
                  OFFSET -2.60934 -0.819778 -0.0198488
                  CHANNELS 3 Zrotation Xrotation Yrotation
                  End Site
                  {
                    OFFSET -2.33842 -0.294052 0.168128
                  }
                }
              }
              JOINT rPinky1
              {
                OFFSET -8.27202 -0.0477905 -0.4584
                CHANNELS 3 Zrotation Xrotation Yrotation
                JOINT rPinky2
                {
                  OFFSET -1.82734 -0.647385 -0.700984
                  CHANNELS 3 Zrotation Xrotation Yrotation
                  End Site
                  {
                    OFFSET -1.69225 -0.51767 -0.607171
                  }
                }
              }
            }
          }
        }
      }
      JOINT lCollar
      {
        OFFSET 2.68224 19.2634 -4.8768
        CHANNELS 3 Zrotation Xrotation Yrotation
        JOINT lShldr
        {
          OFFSET 8.77824 -1.95073 1.46304
          CHANNELS 3 Zrotation Xrotation Yrotation
          JOINT lForeArm
          {
            OFFSET 28.1742 -1.7115 0.48768
            CHANNELS 3 Zrotation Xrotation Yrotation
            JOINT lHand
            {
              OFFSET 22.5879 0.773209 7.07136
              CHANNELS 3 Zrotation Xrotation Yrotation
              JOINT lThumb1
              {
                OFFSET 1.2192 -0.487915 3.41376
                CHANNELS 3 Zrotation Xrotation Yrotation
                JOINT lThumb2
                {
                  OFFSET 3.37035 -0.52449 3.41376
                  CHANNELS 3 Zrotation Xrotation Yrotation
                  End Site
                  {
                    OFFSET 1.78271 -1.18214 1.43049
                  }
                }
              }
              JOINT lIndex1
              {
                OFFSET 7.75947 0.938293 5.60832
                CHANNELS 3 Zrotation Xrotation Yrotation
                JOINT lIndex2
                {
                  OFFSET 2.54057 -0.884171 1.56538
                  CHANNELS 3 Zrotation Xrotation Yrotation
                  End Site
                  {
                    OFFSET 1.62519 -0.234802 1.16502
                  }
                }
              }
              JOINT lMid1
              {
                OFFSET 8.24714 1.18213 3.41376
                CHANNELS 3 Zrotation Xrotation Yrotation
                JOINT lMid2
                {
                  OFFSET 3.10165 -0.590103 1.0647
                  CHANNELS 3 Zrotation Xrotation Yrotation
                  End Site
                  {
                    OFFSET 2.48547 -0.328903 0.83742
                  }
                }
              }
              JOINT lRing1
              {
                OFFSET 8.82822 0.546677 1.51678
                CHANNELS 3 Zrotation Xrotation Yrotation
                JOINT lRing2
                {
                  OFFSET 2.60934 -0.819778 -0.0198488
                  CHANNELS 3 Zrotation Xrotation Yrotation
                  End Site
                  {
                    OFFSET 2.33842 -0.294052 0.168128
                  }
                }
              }
              JOINT lPinky1
              {
                OFFSET 8.27202 -0.0477905 -0.4584
                CHANNELS 3 Zrotation Xrotation Yrotation
                JOINT lPinky2
                {
                  OFFSET 1.82734 -0.647385 -0.700984
                  CHANNELS 3 Zrotation Xrotation Yrotation
                  End Site
                  {
                    OFFSET 1.69225 -0.51767 -0.607171
                  }
                }
              }
            }
          }
        }
      }
    }
  }
  JOINT rButtock
  {
    OFFSET -8.77824 4.35084 1.2192
    CHANNELS 3 Zrotation Xrotation Yrotation
    JOINT rThigh
    {
      OFFSET 0 -1.70687 -2.19456
      CHANNELS 3 Zrotation Xrotation Yrotation
      JOINT rShin
      {
        OFFSET 0 -36.8199 0.73152
        CHANNELS 3 Zrotation Xrotation Yrotation
        JOINT rFoot
        {
          OFFSET 0.73152 -45.1104 -5.12064
          CHANNELS 3 Zrotation Xrotation Yrotation
          End Site
          {
            OFFSET -1.1221 -3.69964 12.103
          }
        }
      }
    }
  }
  JOINT lButtock
  {
    OFFSET 8.77824 4.35084 1.2192
    CHANNELS 3 Zrotation Xrotation Yrotation
    JOINT lThigh
    {
      OFFSET 0 -1.70687 -2.19456
      CHANNELS 3 Zrotation Xrotation Yrotation
      JOINT lShin
      {
        OFFSET 0 -36.8199 0.73152
        CHANNELS 3 Zrotation Xrotation Yrotation
        JOINT lFoot
        {
          OFFSET -0.73152 -45.1104 -5.12064
          CHANNELS 3 Zrotation Xrotation Yrotation
          End Site
          {
            OFFSET 1.1221 -3.69964 12.103
          }
        }
      }
    }
  }
}
MOTION
Frames:	8
Frame Time:	0.00833333
119.106 59.4115 241.393 -1.19745 0.00337693 0.022483 1.575 -0.00270827 0.0428953 0.434157 0.00151532 0.0751857 -6.58206e-014 0 -7.45443e-017 -1.9812e-013 3.18055e-015 -1.73937e-016 -0 0 0 -0 0 0 -3.30498e-014 9.18214e-017 0 -6.91241e-013 1.78285e-015 -1.98785e-015 -1.19567e-011 3.63716e-012 1.01778e-013 -1.36749e-010 -3.23443e-012 -3.56222e-013 -3.22595e-010 8.72991e-013 -5.05708e-013 -5.57116e-010 1.5044e-012 -8.80219e-013 -3.22588e-010 8.75845e-013 -5.1525e-013 7.73091 5.47488 0.417314 -3.22595e-010 8.73261e-013 -5.05708e-013 2.90554 0.965183 0.102902 -3.22583e-010 8.7336e-013 -5.12069e-013 10.2786 0.731801 0.0259123 -3.22601e-010 8.73857e-013 -5.08889e-013 2.22167 -0.733487 -0.20892 -3.29488e-014 8.98802e-017 -9.93923e-017 -6.97874e-013 2.29224e-015 -3.97569e-015 -1.19458e-011 -3.51034e-012 8.90555e-014 -1.36788e-010 3.94088e-012 -3.435e-013 -3.22647e-010 9.289e-013 -5.1843e-013 -5.57187e-010 1.59982e-012 -8.73062e-013 -3.22654e-010 9.31505e-013 -5.05708e-013 -7.73091 5.47488 -0.417314 -3.22649e-010 9.2912e-013 -5.12069e-013 -2.90554 0.965183 -0.102902 -3.22656e-010 9.2912e-013 -5.1366e-013 -10.2786 0.731801 -0.0259123 -3.22644e-010 9.31107e-013 -5.12069e-013 -2.22167 -0.733487 0.20892 -2.03217e-016 0 -3.88251e-019 1.70493 -6.60398 -0.159339 0.00258635 6.39961 0.0733572 -0.528109 0.199771 0.0641002 2.03217e-016 0 3.88251e-019 0.69232 -1.9236 0.00557666 0.00917528 -2.07857 0.0757261 0.502646 3.99746 -0.138909 
122.516 56.2208 237.297 -7.76191 4.87921 42.8311 3.45642 3.83292 2.65182 -0.875344 -3.42143 0.621643 -1.32708 1.331 -1.11864 2.41012 -12.028 -1.57835 -0 0 0 -0 0 0 -2.09531e-014 6.39233e-014 1.14314e-013 20.7136 12.94 -0.0225048 -26.8755 -24.4859 13.7996 1.03432e-005 0.74327 0.104436 -1.04064e-009 -2.45055e-009 1.39416e-009 -1.79417e-009 -4.22819e-009 2.40859e-009 -1.04063e-009 -2.45055e-009 1.39415e-009 7.73091 5.47488 0.417314 -1.04064e-009 -2.45055e-009 1.39416e-009 2.90554 0.965183 0.102902 -1.04063e-009 -2.45055e-009 1.39416e-009 10.2786 0.731801 0.0259123 -1.04064e-009 -2.45055e-009 1.39416e-009 2.22167 -0.733487 -0.20892 -2.08354e-014 6.39282e-014 1.14218e-013 -18.2012 19.0163 12.2394 20.7812 -18.585 -15.1472 -0.0309231 -3.90266 0.543898 -7.85328e-010 4.33725e-012 -1.17564e-009 -1.3415e-009 1.02619e-011 -2.04073e-009 -7.85333e-010 4.33926e-012 -1.17563e-009 -7.73091 5.47488 -0.417314 -7.85329e-010 4.33775e-012 -1.17564e-009 -2.90554 0.965183 -0.102902 -7.85338e-010 4.33782e-012 -1.17564e-009 -10.2786 0.731801 -0.0259123 -7.85326e-010 4.33891e-012 -1.17564e-009 -2.22167 -0.733487 0.20892 -2.03217e-016 0 -3.88251e-019 2.92714 -4.35743 -0.077758 0.207696 16.2927 0.480116 -0.457483 6.87095 -2.04951 2.03217e-016 0 3.88251e-019 0.962732 -25.666 0.759327 0.0451019 17.2348 -0.16362 0.511276 0.666211 -0.478939 
121.887 56.5072 235.903 -19.109 0.537891 87.7827 5.11004 7.81507 5.48412 -2.21542 -7.04721 1.2135 -2.67788 2.74251 -2.3097 4.19266 -24.6722 -3.49531 -0 0 0 -0 0 0 -9.73575e-015 1.31629e-013 2.48108e-013 42.6374 26.6308 -0.0724905 -38.4867 -45.0635 37.9453 -0.00374662 1.61431 0.226893 -1.85842e-009 -5.22017e-009 2.97077e-009 -3.20336e-009 -9.00696e-009 5.13242e-009 -1.85842e-009 -5.22017e-009 2.97076e-009 7.73091 5.47488 0.417314 -1.85843e-009 -5.22017e-009 2.97077e-009 2.90554 0.965183 0.102902 -1.85842e-009 -5.22017e-009 2.97076e-009 10.2786 0.731801 0.0259123 -1.85843e-009 -5.22017e-009 2.97077e-009 2.22167 -0.733487 -0.20892 -9.59367e-015 1.31642e-013 2.48018e-013 -47.7965 36.0461 30.0606 30.8487 -33.7162 -36.2875 0.0176527 -8.0214 1.12652 -1.31127e-009 -1.1252e-011 -2.52594e-009 -2.23301e-009 -1.34573e-011 -4.38434e-009 -1.31128e-009 -1.12507e-011 -2.52593e-009 -7.73091 5.47488 -0.417314 -1.31127e-009 -1.12512e-011 -2.52593e-009 -2.90554 0.965183 -0.102902 -1.31128e-009 -1.12511e-011 -2.52593e-009 -10.2786 0.731801 -0.0259123 -1.31127e-009 -1.12511e-011 -2.52594e-009 -2.22167 -0.733487 0.20892 -2.03217e-016 0 -3.88251e-019 4.27438 -1.83333 0.0763179 0.25441 26.5344 0.976772 0.18079 14.0502 -4.39176 2.03217e-016 0 3.88251e-019 2.36779 -50.8352 2.24422 0.295357 37.6397 -0.50699 0.474866 -2.80543 -0.853484 
121.143 56.7653 234.322 -23.323 -12.0681 126.174 6.15701 11.407 8.0111 -3.29571 -10.2633 1.73907 -3.82509 3.98692 -3.36315 4.84821 -35.961 -5.72479 -0 0 0 -0 0 0 3.24029e-015 1.91586e-013 3.42941e-013 62.1787 38.8199 -0.0844541 -31.2146 -50.0403 71.8545 -0.00810295 2.22978 0.313519 -2.47673e-009 -7.35339e-009 4.1835e-009 -4.26828e-009 -1.26876e-008 7.22754e-009 -2.47672e-009 -7.35339e-009 4.18349e-009 7.73091 5.47488 0.417314 -2.47673e-009 -7.3534e-009 4.1835e-009 2.90554 0.965183 0.102902 -2.47672e-009 -7.35339e-009 4.1835e-009 10.2786 0.731801 0.0259123 -2.47673e-009 -7.35339e-009 4.1835e-009 2.22167 -0.733487 -0.20892 3.39154e-015 1.91605e-013 3.42852e-013 -85.107 44.382 52.7737 30.0465 -38.1282 -60.1468 0.133499 -11.7037 1.66248 -1.71069e-009 1.1154e-011 -3.5259e-009 -2.91011e-009 2.75861e-011 -6.12043e-009 -1.71069e-009 1.11548e-011 -3.52589e-009 -7.73091 5.47488 -0.417314 -1.71069e-009 1.1155e-011 -3.5259e-009 -2.90554 0.965183 -0.102902 -1.7107e-009 1.11552e-011 -3.5259e-009 -10.2786 0.731801 -0.0259123 -1.71069e-009 1.11545e-011 -3.5259e-009 -2.22167 -0.733487 0.20892 -2.03217e-016 0 -3.88251e-019 5.35245 0.135727 0.0839633 0.104621 36.0708 1.53009 1.23809 20.1017 -6.63861 2.03217e-016 0 3.88251e-019 7.23013 -73.0369 7.01526 0.891585 55.8567 -1.105 0.409406 -5.99501 -1.16595 
120.386 57.0277 232.748 -18.9531 -22.088 153.644 6.44432 14.1192 9.64381 -3.8728 -12.4591 2.07476 -4.57616 4.8196 -4.0654 4.43576 -43.9728 -7.85409 -0 0 0 -0 0 0 2.0613e-014 2.32172e-013 3.40369e-013 75.6669 47.2547 0.055792 -27.0627 -43.8453 91.1379 -0.00597438 2.20641 0.310245 -2.59632e-009 -7.89562e-009 4.48657e-009 -4.47253e-009 -1.36228e-008 7.75089e-009 -2.59631e-009 -7.89562e-009 4.48656e-009 7.73091 5.47488 0.417314 -2.59632e-009 -7.89563e-009 4.48657e-009 2.90554 0.965183 0.102902 -2.59631e-009 -7.89562e-009 4.48657e-009 10.2786 0.731801 0.0259123 -2.59632e-009 -7.89562e-009 4.48657e-009 2.22167 -0.733487 -0.20892 2.07355e-014 2.3219e-013 3.4027e-013 -114.478 44.7714 69.38 28.4198 -34.7898 -74.9979 0.257522 -14.299 2.05283 -1.79379e-009 1.28548e-010 -3.65003e-009 -3.05121e-009 2.30536e-010 -6.33773e-009 -1.79379e-009 1.28548e-010 -3.65003e-009 -7.73091 5.47488 -0.417314 -1.79379e-009 1.28549e-010 -3.65003e-009 -2.90554 0.965183 -0.102902 -1.7938e-009 1.28549e-010 -3.65003e-009 -10.2786 0.731801 -0.0259123 -1.79378e-009 1.28549e-010 -3.65004e-009 -2.22167 -0.733487 0.20892 -2.03217e-016 0 -3.88251e-019 5.79136 0.717184 -0.273693 -0.179875 43.8508 2.04417 2.13653 23.4486 -8.25896 2.03217e-016 0 3.88251e-019 53.7655 -87.0229 53.6548 1.94642 68.6064 -2.11859 0.360838 -8.48086 -1.31498 
119.542 57.3735 231.115 -14.8968 -25.4501 164.798 6.00014 15.6963 9.92848 -3.77632 -13.2075 2.13082 -4.82741 5.0751 -4.26944 3.69162 -47.5143 -8.97526 -0 0 0 -0 0 0 4.86609e-014 2.437e-013 1.70944e-013 80.5447 50.4672 0.496233 -27.29 -39.7043 95.2314 0.00347167 1.24742 0.175288 -1.87045e-009 -5.65314e-009 3.19038e-009 -3.2166e-009 -9.75306e-009 5.51117e-009 -1.87044e-009 -5.65314e-009 3.19037e-009 7.73091 5.47488 0.417314 -1.87045e-009 -5.65315e-009 3.19038e-009 2.90554 0.965183 0.102902 -1.87044e-009 -5.65315e-009 3.19038e-009 10.2786 0.731801 0.0259123 -1.87045e-009 -5.65314e-009 3.19038e-009 2.22167 -0.733487 -0.20892 4.86796e-014 2.43707e-013 1.70812e-013 -125.522 44.4543 73.7872 28.3212 -32.0579 -79.0157 0.321559 -15.4404 2.22827 -1.33692e-009 4.43369e-010 -2.25585e-009 -2.27738e-009 7.70826e-010 -3.92286e-009 -1.33692e-009 4.4337e-010 -2.25585e-009 -7.73091 5.47488 -0.417314 -1.33692e-009 4.4337e-010 -2.25586e-009 -2.90554 0.965183 -0.102902 -1.33693e-009 4.43371e-010 -2.25586e-009 -10.2786 0.731801 -0.0259123 -1.33691e-009 4.43372e-010 -2.25587e-009 -2.22167 -0.733487 0.20892 -2.03217e-016 0 -3.88251e-019 5.28959 -0.565731 -1.165 -0.426353 49.2124 2.34994 2.17981 23.1327 -8.60574 2.03217e-016 0 3.88251e-019 142.855 -86.0402 143.384 2.82594 73.702 -2.96669 0.391416 -9.95852 -1.19005 
118.762 57.6151 229.548 -14.7057 -25.2883 162.899 5.1318 16.4793 9.2179 -3.21259 -12.9236 1.98302 -4.73112 4.91953 -4.11652 3.16311 -47.9049 -8.99792 -0 0 0 -0 0 0 8.41188e-014 2.34566e-013 -1.16211e-013 79.323 49.9455 1.1143 -27.4915 -39.3599 93.0234 0.00791151 -0.377939 -0.0531743 -5.47689e-010 -1.44813e-009 7.6737e-010 -9.29841e-010 -2.49692e-009 1.32462e-009 -5.47685e-010 -1.44813e-009 7.67362e-010 7.73091 5.47488 0.417314 -5.4769e-010 -1.44814e-009 7.6737e-010 2.90554 0.965183 0.102902 -5.47687e-010 -1.44814e-009 7.67371e-010 10.2786 0.731801 0.0259123 -5.47693e-010 -1.44813e-009 7.6738e-010 2.22167 -0.733487 -0.20892 8.3981e-014 2.34554e-013 -1.16392e-013 -123.507 45.6844 70.192 28.2809 -31.7589 -77.3826 0.324045 -15.5411 2.24328 -4.98994e-010 8.96142e-010 2.08921e-010 -8.57858e-010 1.5468e-009 3.4804e-010 -4.98995e-010 8.96142e-010 2.08929e-010 -7.73091 5.47488 -0.417314 -4.98992e-010 8.96142e-010 2.08916e-010 -2.90554 0.965183 -0.102902 -4.99003e-010 8.96142e-010 2.08918e-010 -10.2786 0.731801 -0.0259123 -4.98976e-010 8.96146e-010 2.08907e-010 -2.22167 -0.733487 0.20892 -2.03217e-016 0 -3.88251e-019 4.02096 -3.18152 -2.44009 -0.552232 52.8474 2.43409 1.56014 20.2111 -8.0319 2.03217e-016 0 3.88251e-019 111.915 -87.771 113.501 2.74762 73.3382 -2.8799 0.491418 -10.7172 -0.868036 
117.971 57.8313 227.976 -16.0946 -23.6578 155.787 4.14312 16.8957 8.10655 -2.51384 -12.2613 1.75005 -4.48524 4.60714 -3.82372 2.83912 -47.0206 -8.51829 -0 0 0 -0 0 0 1.15309e-013 2.20266e-013 -4.01678e-013 75.8717 47.873 1.67438 -27.7163 -40.235 88.137 -0.00097546 -2.20387 -0.309907 7.78202e-010 2.65019e-009 -1.58521e-009 1.36087e-009 4.57539e-009 -2.74053e-009 7.78205e-010 2.6502e-009 -1.58522e-009 7.73091 5.47488 0.417314 7.78201e-010 2.65019e-009 -1.58521e-009 2.90554 0.965183 0.102902 7.78204e-010 2.65019e-009 -1.58521e-009 10.2786 0.731801 0.0259123 7.78197e-010 2.65019e-009 -1.5852e-009 2.22167 -0.733487 -0.20892 1.15029e-013 2.20235e-013 -4.01903e-013 -115.859 47.0371 62.7968 28.2396 -32.1935 -73.3966 0.296012 -15.1215 2.17778 3.35977e-010 1.30098e-009 2.63448e-009 5.56709e-010 2.23998e-009 4.55197e-009 3.35975e-010 1.30098e-009 2.63449e-009 -7.73091 5.47488 -0.417314 3.3598e-010 1.30098e-009 2.63448e-009 -2.90554 0.965183 -0.102902 3.35971e-010 1.30098e-009 2.63448e-009 -10.2786 0.731801 -0.0259123 3.36005e-010 1.30099e-009 2.63447e-009 -2.22167 -0.733487 0.20892 -2.03217e-016 0 -3.88251e-019 2.34553 -6.44771 -3.84863 -0.605027 55.737 2.40785 0.846539 16.1728 -7.35738 2.03217e-016 0 3.88251e-019 18.307 -85.4342 21.0696 2.27685 70.8022 -2.41037 0.60133 -11.2265 -0.526602 
